<?xml version="1.0" standalone="no"?><!DOCTYPE svg PUBLIC "-//W3C//DTD SVG 1.1//EN" "http://www.w3.org/Graphics/SVG/1.1/DTD/svg11.dtd"><svg t="1744129708425" class="icon" viewBox="0 0 1024 1024" version="1.1" xmlns="http://www.w3.org/2000/svg" p-id="4812" xmlns:xlink="http://www.w3.org/1999/xlink" width="200" height="200"><path d="M501.76 68.9152c238.1824 0 432.2304 194.048 432.2304 432.2304S739.9424 933.376 501.76 933.376s-432.2304-194.048-432.2304-432.2304S263.5776 68.9152 501.76 68.9152zM501.76 0C224.8704 0 0 224.8704 0 501.76s224.256 501.76 501.76 501.76c276.8896 0 501.76-224.8704 501.76-501.76 0-277.504-224.8704-501.76-501.76-501.76zM142.08 536.2176a34.4576 34.4576 0 0 1-34.4576-34.4576c0-114.8416 44.6976-222.464 125.7472-303.4624 13.312-13.312 35.6352-13.312 48.9472 0s13.312 35.6352 0 48.9472A358.0416 358.0416 0 0 0 177.152 501.76a35.328 35.328 0 0 1-35.072 34.4576z m115.456 278.6816a33.8944 33.8944 0 0 1-24.1664-10.24 419.584 419.584 0 0 1-97.3312-150.528 34.9184 34.9184 0 0 1 19.968-44.7488 34.9184 34.9184 0 0 1 44.6976 19.968c18.1248 47.7184 45.9264 90.0608 81.6128 126.3104 13.312 13.312 13.312 35.6864 0 48.9472a33.792 33.792 0 0 1-24.7808 10.2912z m244.224-434.688a121.2416 121.2416 0 0 1 120.8832 120.9344A121.2416 121.2416 0 0 1 501.76 622.08a121.2416 121.2416 0 0 1-120.8832-120.9344A121.2416 121.2416 0 0 1 501.76 380.2624z m0-68.864a190.4128 190.4128 0 1 0 0 380.7744 190.4128 190.4128 0 0 0 0-380.7744z" fill="#ffffff" p-id="4813"></path></svg>